<svg width="23" height="21" viewBox="0 0 23 21" fill="none" xmlns="http://www.w3.org/2000/svg">
<path d="M5.11111 14.0412H17.8889C18.0712 14.0412 18.2232 13.9814 18.3451 13.8619C18.4669 13.7423 18.5278 13.5931 18.5278 13.4142C18.5278 13.2353 18.4669 13.0861 18.3451 12.9666C18.2232 12.847 18.0712 12.7873 17.8889 12.7873H5.11111C4.92967 12.7873 4.77761 12.847 4.65494 12.9666C4.53228 13.0861 4.47137 13.2353 4.47222 13.4142C4.47307 13.5931 4.53398 13.7423 4.65494 13.8619C4.77591 13.9814 4.92796 14.0412 5.11111 14.0412ZM5.11111 10.2794H17.8889C18.0712 10.2794 18.2232 10.2196 18.3451 10.1001C18.4669 9.98056 18.5278 9.83135 18.5278 9.65245C18.5278 9.47356 18.4669 9.32434 18.3451 9.2048C18.2232 9.08526 18.0712 9.02549 17.8889 9.02549H5.11111C4.92967 9.02549 4.77761 9.08526 4.65494 9.2048C4.53228 9.32434 4.47137 9.47356 4.47222 9.65245C4.47307 9.83135 4.53398 9.98056 4.65494 10.1001C4.77591 10.2196 4.92796 10.2794 5.11111 10.2794ZM5.11111 6.51765H17.8889C18.0712 6.51765 18.2232 6.45788 18.3451 6.33834C18.4669 6.2188 18.5278 6.06958 18.5278 5.89069C18.5278 5.7118 18.4669 5.56258 18.3451 5.44304C18.2232 5.3235 18.0712 5.26373 17.8889 5.26373H5.11111C4.92967 5.26373 4.77761 5.3235 4.65494 5.44304C4.53228 5.56258 4.47137 5.7118 4.47222 5.89069C4.47307 6.06958 4.53398 6.2188 4.65494 6.33834C4.77591 6.45788 4.92796 6.51765 5.11111 6.51765ZM2.06489 18.4299C1.47626 18.4299 0.985167 18.2368 0.591611 17.8506C0.198056 17.4644 0.000851852 16.9825 0 16.4048V2.90009C0 2.32328 0.197204 1.84136 0.591611 1.45431C0.986019 1.06727 1.47668 0.874167 2.06361 0.875003H20.9364C21.5242 0.875003 22.0148 1.06811 22.4084 1.45431C22.8019 1.84052 22.9991 2.32245 23 2.90009V19.8506C23 20.302 22.7883 20.6134 22.3649 20.7848C21.9416 20.9561 21.5685 20.8834 21.2456 20.5666L19.0683 18.4299H2.06489ZM19.6139 17.176L21.7222 19.2374V2.90134C21.7222 2.70824 21.6404 2.53101 21.4769 2.36968C21.3133 2.20834 21.1332 2.12809 20.9364 2.12892H2.06361C1.86768 2.12892 1.68752 2.20917 1.52311 2.36968C1.3587 2.53018 1.27693 2.70698 1.27778 2.90009V16.4048C1.27778 16.5971 1.35956 16.7739 1.52311 16.9352C1.68667 17.0966 1.86683 17.1768 2.06361 17.176H19.6139Z" fill="black"/>
</svg>
