<svg width="25" height="25" viewBox="0 0 25 25" fill="none" xmlns="http://www.w3.org/2000/svg">
<g clip-path="url(#clip0_2304_40)">
<path fill-rule="evenodd" clip-rule="evenodd" d="M12 1.79823C12.0402 2.15105 11.9386 2.50538 11.7176 2.78331C11.4966 3.06125 11.1743 3.24004 10.8215 3.28037C9.73646 3.39114 8.67578 3.67258 7.6786 4.1143C7.3556 4.26254 6.98695 4.27639 6.65374 4.15282C6.32052 4.02925 6.05005 3.77837 5.90181 3.45537C5.75358 3.13238 5.73972 2.76372 5.86329 2.43051C5.98687 2.0973 6.23775 1.82682 6.56074 1.67859C7.81472 1.1164 9.15072 0.758886 10.5179 0.619657C10.8707 0.579482 11.225 0.681068 11.503 0.902078C11.7809 1.12309 11.9597 1.44543 12 1.79823ZM13.6143 1.82323C13.6417 1.64944 13.7031 1.48276 13.7949 1.3327C13.8867 1.18264 14.0072 1.05214 14.1495 0.948661C14.2918 0.845183 14.4531 0.770752 14.6241 0.72962C14.7952 0.688489 14.9727 0.681463 15.1465 0.708943C18.0625 1.16966 20.4411 2.4393 22.0786 4.51787C23.7036 6.58216 24.4893 9.30894 24.4893 12.5C24.4893 16.1536 23.4572 19.1982 21.3286 21.3286C19.1982 23.4572 16.1536 24.4893 12.5 24.4893C8.16074 24.4893 4.69288 23.0286 2.60717 20.0572C2.49727 19.9139 2.41748 19.7499 2.37259 19.575C2.3277 19.4001 2.31864 19.2179 2.34594 19.0395C2.37325 18.861 2.43637 18.6899 2.5315 18.5364C2.62663 18.3829 2.75181 18.2503 2.89952 18.1464C3.04722 18.0426 3.2144 17.9697 3.391 17.9321C3.56761 17.8945 3.74999 17.893 3.92718 17.9277C4.10438 17.9624 4.27273 18.0326 4.42211 18.134C4.57149 18.2354 4.69883 18.366 4.79646 18.5179C6.24467 20.5786 8.76074 21.8107 12.5 21.8107C15.6607 21.8107 17.9411 20.925 19.434 19.4339C20.9268 17.9429 21.809 15.6607 21.809 12.5C21.809 9.73573 21.1322 7.64644 19.9732 6.17501C18.825 4.71609 17.0982 3.72859 14.7286 3.35359C14.378 3.29824 14.0637 3.10596 13.8547 2.81901C13.6458 2.53206 13.5593 2.1739 13.6143 1.82323ZM1.85003 11.1607C2.20523 11.1607 2.54588 11.3018 2.79704 11.553C3.04821 11.8042 3.18931 12.1448 3.18931 12.5C3.19169 13.6607 3.30717 14.7054 3.53574 15.6339C3.61957 15.9792 3.56281 16.3436 3.37795 16.647C3.1931 16.9504 2.89528 17.168 2.55003 17.2518C2.20477 17.3356 1.84036 17.2789 1.53695 17.094C1.23354 16.9092 1.016 16.6113 0.932169 16.2661C0.643663 15.0317 0.502203 13.7676 0.51074 12.5C0.51074 12.1448 0.651843 11.8042 0.903008 11.553C1.15417 11.3018 1.49483 11.1607 1.85003 11.1607ZM5.00181 6.20537C5.21991 5.925 5.31769 5.56947 5.27365 5.21701C5.22961 4.86454 5.04736 4.544 4.76699 4.32591C4.48662 4.10781 4.13109 4.01003 3.77863 4.05407C3.42616 4.09811 3.10562 4.28036 2.88753 4.56073C2.0081 5.70906 1.37029 7.02356 1.01253 8.42501C0.929353 8.76484 0.982454 9.12372 1.16047 9.42489C1.33849 9.72607 1.62729 9.94563 1.96511 10.0366C2.30292 10.1276 2.66293 10.0828 2.96813 9.91176C3.27333 9.74073 3.49949 9.45707 3.59824 9.12144C3.90717 7.96787 4.38396 7.00001 5.00181 6.20537ZM12.5018 6.43394C12.857 6.43394 13.1977 6.57505 13.4488 6.82621C13.7 7.07737 13.8411 7.41803 13.8411 7.77323V11.0947H17.1625C17.5177 11.0947 17.8584 11.2358 18.1095 11.4869C18.3607 11.7381 18.5018 12.0787 18.5018 12.4339C18.5018 12.7891 18.3607 13.1298 18.1095 13.381C17.8584 13.6321 17.5177 13.7732 17.1625 13.7732H13.8393V17.0947C13.8393 17.4499 13.6982 17.7905 13.447 18.0417C13.1959 18.2928 12.8552 18.4339 12.5 18.4339C12.1448 18.4339 11.8042 18.2928 11.553 18.0417C11.3018 17.7905 11.1607 17.4499 11.1607 17.0947V13.7732H7.83931C7.48411 13.7732 7.14346 13.6321 6.89229 13.381C6.64113 13.1298 6.50003 12.7891 6.50003 12.4339C6.50003 12.0787 6.64113 11.7381 6.89229 11.4869C7.14346 11.2358 7.48411 11.0947 7.83931 11.0947H11.1607V7.77323C11.1607 7.41803 11.3018 7.07737 11.553 6.82621C11.8042 6.57505 12.1466 6.43394 12.5018 6.43394Z" fill="black"/>
</g>
<defs>
<clipPath id="clip0_2304_40">
<rect width="25" height="25" fill="white"/>
</clipPath>
</defs>
</svg>
