<svg width="25" height="25" viewBox="0 0 25 25" fill="none" xmlns="http://www.w3.org/2000/svg">
<path d="M5.20837 2.08334H16.6667C17.4955 2.08334 18.2904 2.41258 18.8764 2.99863C19.4625 3.58469 19.7917 4.37954 19.7917 5.20834V19.7917C19.7917 20.0679 19.682 20.3329 19.4866 20.5282C19.2913 20.7236 19.0263 20.8333 18.75 20.8333H15.625" stroke="#FF0000" stroke-width="2" stroke-linecap="round" stroke-linejoin="round"/>
<path d="M12.5 12.5V14.5833M5.20837 2.08334L13.1125 3.66459C13.8209 3.80617 14.4583 4.18877 14.9164 4.7473C15.3744 5.30582 15.6248 6.00579 15.625 6.72814V21.6458C15.6249 21.7999 15.5907 21.952 15.5247 22.0912C15.4588 22.2304 15.3627 22.3533 15.2436 22.4509C15.1244 22.5486 14.9851 22.6186 14.8356 22.6559C14.6862 22.6932 14.5303 22.6969 14.3792 22.6667L6.88337 21.1688C6.41092 21.0743 5.9858 20.8191 5.68039 20.4464C5.37499 20.0738 5.20818 19.6068 5.20837 19.125V2.08334Z" stroke="#FF0000" stroke-width="2" stroke-linecap="round" stroke-linejoin="round"/>
</svg>
